<svg width="100" height="50" viewBox="0 0 100 50" fill="none" xmlns="http://www.w3.org/2000/svg">
<path d="M53.495 14.6358C53.8211 14.6358 54.0847 14.8998 54.0847 15.2264V26.8918C54.0847 31.0666 51.2613 33.814 46.9859 33.814C43.6576 33.814 41.2139 32.0958 40.2266 29.2768C40.0926 28.8875 40.3741 28.4803 40.7851 28.4803H43.6711C43.814 28.4803 43.9436 28.5384 44.0597 28.6279C44.6584 29.1067 45.7931 29.3931 46.9904 29.3931C49.0052 29.3931 50.3231 28.3953 50.3231 26.8605V25.5404C49.3537 27.1289 47.7677 28.0999 45.8065 28.0999C42.094 28.0999 39.3242 25.1377 39.3242 21.2045C39.3242 17.2713 42.094 14.3091 45.8065 14.3091C47.2048 14.3091 48.411 14.8013 49.3402 15.656C49.72 16.005 50.3276 15.7365 50.3276 15.2219C50.3276 14.8953 50.5911 14.6313 50.9173 14.6313H53.5039L53.495 14.6358ZM50.3186 21.209C50.3186 19.7816 48.8131 18.7032 46.767 18.7032C44.7209 18.7032 43.2154 19.7816 43.2154 21.209C43.2154 22.6364 44.7209 23.7148 46.767 23.7148C48.8131 23.7148 50.3186 22.6364 50.3186 21.209V21.209Z" fill="#FF154D"/>
<path d="M55.0273 19.4147C55.0273 17.9605 56.2916 16.8552 57.958 16.8552C59.6243 16.8552 60.8886 17.9605 60.8886 19.4147C60.8886 20.869 59.6243 21.9742 57.958 21.9742C56.2916 21.9742 55.0273 20.869 55.0273 19.4147V19.4147ZM57.1851 23.2674H58.7309C59.3429 23.2674 59.8388 23.7641 59.8388 24.3771V35.8903C59.8388 36.5033 59.3429 37 58.7309 37H57.1851C56.5731 37 56.0772 36.5033 56.0772 35.8903V24.3771C56.0772 23.7641 56.5731 23.2674 57.1851 23.2674Z" fill="#FF154D"/>
<path d="M75.4388 16.4301C75.7649 16.4301 76.0285 16.6941 76.0285 17.0208V28.6862C76.0285 32.861 73.2051 35.6084 68.9297 35.6084C65.6015 35.6084 63.1578 33.8902 62.1705 31.0711C62.0365 30.6818 62.3179 30.2746 62.7289 30.2746H65.6149C65.7579 30.2746 65.8874 30.3328 66.0036 30.4223C66.6022 30.9011 67.7369 31.1875 68.9342 31.1875C70.949 31.1875 72.2669 30.1896 72.2669 28.6548V27.3348C71.2975 28.9233 69.7115 29.8943 67.7503 29.8943C64.0379 29.8943 61.2681 26.9321 61.2681 22.9989C61.2681 19.0657 64.0379 16.1035 67.7503 16.1035C69.1487 16.1035 70.3549 16.5957 71.2841 17.4503C71.6638 17.7994 72.2714 17.5309 72.2714 17.0163C72.2714 16.6897 72.535 16.4257 72.8611 16.4257H75.4478L75.4388 16.4301ZM72.2625 23.0034C72.2625 21.576 70.7569 20.4976 68.7108 20.4976C66.6647 20.4976 65.1592 21.576 65.1592 23.0034C65.1592 24.4308 66.6647 25.5092 68.7108 25.5092C70.7569 25.5092 72.2625 24.4308 72.2625 23.0034V23.0034Z" fill="#FF154D"/>
<path d="M89.3328 23.066V25.9298C89.3328 26.4041 88.9486 26.7844 88.4795 26.7844H78.249C77.7755 26.7844 77.3958 26.3996 77.3958 25.9298V23.8759C77.3958 23.6522 77.4806 23.4419 77.637 23.2808L81.6934 19.0836C82.2206 18.5421 81.8364 17.6293 81.0769 17.6293H78.3563C77.8827 17.6293 77.503 17.2445 77.503 16.7747V13.9064C77.503 13.4321 77.8872 13.0518 78.3563 13.0518H88.2919C88.7654 13.0518 89.1452 13.4366 89.1452 13.9064V15.9647C89.1452 16.1885 89.0603 16.3988 88.9039 16.5599L84.8475 20.7571C84.3203 21.2985 84.7045 22.2113 85.464 22.2113H88.4795C88.9531 22.2113 89.3328 22.5961 89.3328 23.066Z" fill="#FF154D"/>
<path d="M26.4131 33.6217L19.1267 32.2569C18.4431 32.1271 17.9785 31.4917 18.0679 30.8026L20.047 15.4726C20.0916 15.1146 20.2837 14.7924 20.5741 14.5821C20.8645 14.3718 21.2308 14.2868 21.5838 14.3539L30.4427 16.014C30.7956 16.0811 31.1039 16.2869 31.296 16.5867C31.4926 16.8865 31.5551 17.2535 31.4747 17.6025L27.9275 32.6372C27.7667 33.3174 27.1011 33.7514 26.4131 33.6261V33.6217ZM20.8243 29.9077L25.667 30.8161L28.6111 18.3363L22.4638 17.1819L20.8243 29.9077V29.9077Z" fill="#852DF5"/>
<path d="M35.8515 17.1345L33.1085 19.2063C32.8682 19.3879 32.8203 19.7302 33.0015 19.9709L33.3942 20.4925C33.5754 20.7332 33.9172 20.7812 34.1575 20.5997L36.9005 18.5279C37.1408 18.3464 37.1887 18.0041 37.0075 17.7633L36.6148 17.2417C36.4336 17.001 36.0918 16.953 35.8515 17.1345Z" fill="#852DF5"/>
<path d="M33.2899 23.7301L33.1551 24.4514C33.1038 24.7259 33.2844 24.99 33.5585 25.0414L37.8531 25.8464C38.1271 25.8978 38.3909 25.7169 38.4421 25.4424L38.5769 24.7211C38.6282 24.4466 38.4476 24.1825 38.1736 24.1311L33.879 23.3261C33.6049 23.2747 33.3412 23.4556 33.2899 23.7301Z" fill="#852DF5"/>
<path d="M32.1615 27.432L31.4538 27.9174C31.2523 28.0556 31.2007 28.3313 31.3387 28.5331L33.2771 31.3687C33.4151 31.5705 33.6904 31.6221 33.8919 31.4839L34.5997 30.9985C34.8012 30.8603 34.8527 30.5846 34.7147 30.3827L32.7763 27.5472C32.6383 27.3454 32.3631 27.2938 32.1615 27.432Z" fill="#852DF5"/>
<path d="M15.5524 24.0991L12.7167 26.241C12.502 26.4032 12.4591 26.709 12.6211 26.9241L13.0837 27.5386C13.2456 27.7536 13.551 27.7965 13.7657 27.6343L16.6014 25.4925C16.8161 25.3303 16.8589 25.0245 16.697 24.8094L16.2344 24.1949C16.0724 23.9798 15.7671 23.9369 15.5524 24.0991Z" fill="#852DF5"/>
<path d="M11.2465 19.1973L11.074 20.121C11.0331 20.3396 11.1769 20.55 11.3952 20.5909L15.8918 21.4338C16.1101 21.4747 16.3201 21.3306 16.361 21.112L16.5336 20.1884C16.5744 19.9697 16.4306 19.7594 16.2123 19.7184L11.7157 18.8756C11.4974 18.8347 11.2874 18.9787 11.2465 19.1973Z" fill="#852DF5"/>
<path d="M15.7754 13.2453L15.0529 13.7407C14.8554 13.8762 14.8049 14.1463 14.9401 14.3441L16.8886 17.1944C17.0238 17.3922 17.2935 17.4427 17.491 17.3073L18.2135 16.8118C18.411 16.6764 18.4615 16.4062 18.3262 16.2085L16.3777 13.3582C16.2425 13.1604 15.9728 13.1098 15.7754 13.2453Z" fill="#852DF5"/>
<path d="M25.0193 23.5269C26.2011 23.5269 27.1592 22.5673 27.1592 21.3835C27.1592 20.1998 26.2011 19.2402 25.0193 19.2402C23.8375 19.2402 22.8794 20.1998 22.8794 21.3835C22.8794 22.5673 23.8375 23.5269 25.0193 23.5269Z" fill="#852DF5"/>
<path d="M23.965 28.5519C24.7965 28.5519 25.4705 27.8768 25.4705 27.0439C25.4705 26.2111 24.7965 25.536 23.965 25.536C23.1335 25.536 22.4595 26.2111 22.4595 27.0439C22.4595 27.8768 23.1335 28.5519 23.965 28.5519Z" fill="#852DF5"/>
</svg>
