<svg width="50" height="50" viewBox="0 0 50 50" fill="none" xmlns="http://www.w3.org/2000/svg">
<path d="M26.4131 35.6217L19.1267 34.2569C18.4431 34.1271 17.9785 33.4917 18.0679 32.8026L20.047 17.4726C20.0916 17.1146 20.2837 16.7924 20.5741 16.5821C20.8645 16.3718 21.2308 16.2868 21.5838 16.3539L30.4427 18.014C30.7956 18.0811 31.1039 18.2869 31.296 18.5867C31.4926 18.8865 31.5551 19.2535 31.4747 19.6025L27.9275 34.6372C27.7667 35.3174 27.1011 35.7514 26.4131 35.6261V35.6217ZM20.8243 31.9077L25.667 32.8161L28.6111 20.3363L22.4638 19.1819L20.8243 31.9077V31.9077Z" fill="#852DF5"/>
<path d="M35.8515 19.1345L33.1085 21.2063C32.8682 21.3879 32.8203 21.7302 33.0015 21.9709L33.3942 22.4925C33.5754 22.7332 33.9172 22.7812 34.1575 22.5997L36.9005 20.5279C37.1408 20.3464 37.1887 20.0041 37.0075 19.7633L36.6148 19.2417C36.4336 19.001 36.0918 18.953 35.8515 19.1345Z" fill="#852DF5"/>
<path d="M33.2899 25.7301L33.1551 26.4514C33.1038 26.7259 33.2844 26.99 33.5585 27.0414L37.8531 27.8464C38.1271 27.8978 38.3909 27.7169 38.4421 27.4424L38.5769 26.7211C38.6282 26.4466 38.4476 26.1825 38.1736 26.1311L33.879 25.3261C33.6049 25.2747 33.3412 25.4556 33.2899 25.7301Z" fill="#852DF5"/>
<path d="M32.1615 29.432L31.4538 29.9174C31.2523 30.0556 31.2007 30.3313 31.3387 30.5331L33.2771 33.3687C33.4151 33.5705 33.6904 33.6221 33.8919 33.4839L34.5997 32.9985C34.8012 32.8603 34.8527 32.5846 34.7147 32.3827L32.7763 29.5472C32.6383 29.3454 32.3631 29.2938 32.1615 29.432Z" fill="#852DF5"/>
<path d="M15.5524 26.0991L12.7167 28.241C12.502 28.4032 12.4591 28.709 12.6211 28.9241L13.0837 29.5386C13.2456 29.7536 13.551 29.7965 13.7657 29.6343L16.6014 27.4925C16.8161 27.3303 16.8589 27.0245 16.697 26.8094L16.2344 26.1949C16.0724 25.9798 15.7671 25.9369 15.5524 26.0991Z" fill="#852DF5"/>
<path d="M11.2465 21.1973L11.074 22.121C11.0331 22.3396 11.1769 22.55 11.3952 22.5909L15.8918 23.4338C16.1101 23.4747 16.3201 23.3306 16.361 23.112L16.5336 22.1884C16.5744 21.9697 16.4306 21.7594 16.2123 21.7184L11.7157 20.8756C11.4974 20.8347 11.2874 20.9787 11.2465 21.1973Z" fill="#852DF5"/>
<path d="M15.7754 15.2453L15.0529 15.7407C14.8554 15.8762 14.8049 16.1463 14.9401 16.3441L16.8886 19.1944C17.0238 19.3922 17.2935 19.4427 17.491 19.3073L18.2135 18.8118C18.411 18.6764 18.4615 18.4062 18.3262 18.2085L16.3777 15.3582C16.2425 15.1604 15.9728 15.1098 15.7754 15.2453Z" fill="#852DF5"/>
<path d="M25.0193 25.5269C26.2011 25.5269 27.1592 24.5673 27.1592 23.3835C27.1592 22.1998 26.2011 21.2402 25.0193 21.2402C23.8375 21.2402 22.8794 22.1998 22.8794 23.3835C22.8794 24.5673 23.8375 25.5269 25.0193 25.5269Z" fill="#852DF5"/>
<path d="M23.965 30.5519C24.7965 30.5519 25.4705 29.8768 25.4705 29.0439C25.4705 28.2111 24.7965 27.536 23.965 27.536C23.1335 27.536 22.4595 28.2111 22.4595 29.0439C22.4595 29.8768 23.1335 30.5519 23.965 30.5519Z" fill="#852DF5"/>
</svg>
