<svg width="325" height="245" viewBox="0 0 325 245" fill="none" xmlns="http://www.w3.org/2000/svg">
<g filter="url(#filter0_d_376_14)">
<path d="M180.313 236.702L96.6777 221.037C88.832 219.547 83.499 212.254 84.5246 204.344L107.241 28.3804C107.754 24.2715 109.959 20.5735 113.292 18.1595C116.625 15.7455 120.83 14.7697 124.881 15.5401L226.567 34.5951C230.618 35.3655 234.156 37.7281 236.361 41.1694C238.617 44.6106 239.335 48.8222 238.412 52.8284L197.697 225.402C195.851 233.209 188.21 238.191 180.313 236.753V236.702ZM116.164 194.072L171.75 204.498L205.543 61.2516L134.983 48.0004L116.164 194.072V194.072Z" fill="#FF154D"/>
<path d="M288.649 47.4577L257.164 71.2385C254.405 73.3221 253.855 77.2512 255.936 80.0142L260.443 86.0014C262.524 88.7645 266.446 89.3153 269.205 87.2317L300.69 63.4509C303.448 61.3672 303.998 57.4382 301.918 54.6751L297.41 48.6879C295.33 45.9248 291.407 45.3741 288.649 47.4577Z" fill="#FF154D"/>
<path d="M259.248 123.163L257.701 131.443C257.112 134.593 259.185 137.625 262.331 138.215L311.626 147.455C314.771 148.045 317.798 145.969 318.387 142.818L319.934 134.539C320.523 131.388 318.45 128.356 315.304 127.766L266.009 118.526C262.864 117.936 259.837 120.012 259.248 123.163Z" fill="#FF154D"/>
<path d="M246.297 165.655L238.173 171.226C235.86 172.813 235.268 175.977 236.852 178.294L259.102 210.841C260.686 213.158 263.846 213.751 266.159 212.164L274.283 206.593C276.596 205.006 277.187 201.841 275.603 199.524L253.354 166.977C251.77 164.66 248.61 164.068 246.297 165.655Z" fill="#FF154D"/>
<path d="M55.6498 127.399L23.1007 151.984C20.636 153.845 20.1447 157.356 22.0033 159.824L27.3137 166.878C29.1723 169.346 32.6771 169.838 35.1418 167.977L67.6909 143.392C70.1556 141.53 70.6469 138.02 68.7883 135.551L63.4778 128.498C61.6192 126.029 58.1145 125.537 55.6498 127.399Z" fill="#FF154D"/>
<path d="M6.22633 71.1348L4.24544 81.7366C3.77657 84.246 5.42747 86.6609 7.93282 87.1306L59.5463 96.8053C62.0516 97.2749 64.4627 95.6213 64.9316 93.112L66.9125 82.5102C67.3813 80.0008 65.7304 77.5858 63.2251 77.1162L11.6116 67.4415C9.10627 66.9719 6.69519 68.6254 6.22633 71.1348Z" fill="#FF154D"/>
<path d="M58.211 2.81469L49.9181 8.50211C47.6515 10.0566 47.0721 13.1572 48.6241 15.4275L70.9896 48.144C72.5416 50.4144 75.6373 50.9946 77.904 49.4401L86.1969 43.7527C88.4635 42.1982 89.0429 39.0976 87.4909 36.8273L65.1254 4.11075C63.5733 1.84045 60.4777 1.26018 58.211 2.81469Z" fill="#FF154D"/>
<path d="M164.315 120.831C177.88 120.831 188.877 109.816 188.877 96.2287C188.877 82.6413 177.88 71.6266 164.315 71.6266C150.749 71.6266 139.752 82.6413 139.752 96.2287C139.752 109.816 150.749 120.831 164.315 120.831Z" fill="#FF154D"/>
<path d="M152.213 178.509C161.757 178.509 169.494 170.76 169.494 161.201C169.494 151.641 161.757 143.892 152.213 143.892C142.669 143.892 134.932 151.641 134.932 161.201C134.932 170.76 142.669 178.509 152.213 178.509Z" fill="#FF154D"/>
</g>
<defs>
<filter id="filter0_d_376_14" x="0.165771" y="1.94292" width="323.868" height="243.057" filterUnits="userSpaceOnUse" color-interpolation-filters="sRGB">
<feFlood flood-opacity="0" result="BackgroundImageFix"/>
<feColorMatrix in="SourceAlpha" type="matrix" values="0 0 0 0 0 0 0 0 0 0 0 0 0 0 0 0 0 0 127 0" result="hardAlpha"/>
<feOffset dy="4"/>
<feGaussianBlur stdDeviation="2"/>
<feComposite in2="hardAlpha" operator="out"/>
<feColorMatrix type="matrix" values="0 0 0 0 0 0 0 0 0 0 0 0 0 0 0 0 0 0 1 0"/>
<feBlend mode="normal" in2="BackgroundImageFix" result="effect1_dropShadow_376_14"/>
<feBlend mode="normal" in="SourceGraphic" in2="effect1_dropShadow_376_14" result="shape"/>
</filter>
</defs>
</svg>
